M48
METRIC,LZ,000.000
;FILE_FORMAT=3:3
;TYPE=PLATED
;Layer: PTH_Through
;EasyEDA v6.5.5, 2022-05-19 09:40:35
;cccee4e8604c442182ae7a2f59335eea,d4d611e81e4947998488be7877915955,10
;Gerber Generator version 0.2
;Holesize 1 = 0.712 mm
T01C0.712
;Holesize 2 = 1.000 mm
T02C1.000
%
G05
G90
T01
X054737Y045266
X052197Y045266
X049657Y045266
X047117Y045266
T02
X058547Y040005G85X058547Y040005
X056007Y040005G85X056007Y040005
X053467Y040005G85X053467Y040005
X050927Y040005G85X050927Y040005
X048387Y040005G85X048387Y040005
X045847Y040005G85X045847Y040005
X043307Y040005G85X043307Y040005
X040767Y040005G85X040767Y040005
X038227Y040005G85X038227Y040005
X035687Y040005G85X035687Y040005
X033147Y040005G85X033147Y040005
X030607Y040005G85X030607Y040005
X058547Y019685G85X058547Y019685
X056007Y019685G85X056007Y019685
X053467Y019685G85X053467Y019685
X050927Y019685G85X050927Y019685
X048387Y019685G85X048387Y019685
X045847Y019685G85X045847Y019685
X043307Y019685G85X043307Y019685
X040767Y019685G85X040767Y019685
X038227Y019685G85X038227Y019685
X035687Y019685G85X035687Y019685
X033147Y019685G85X033147Y019685
X030607Y019685G85X030607Y019685
X061087Y019685G85X061087Y019685
X063627Y019685G85X063627Y019685
X066167Y019685G85X066167Y019685
X068707Y019685G85X068707Y019685
X054356Y033655G85X054356Y033655
X051816Y033655G85X051816Y033655
X049276Y033655G85X049276Y033655
X046736Y033655G85X046736Y033655
M30
