G04 Layer: BottomSolderMaskLayer*
G04 EasyEDA v6.5.5, 2022-05-19 09:40:35*
G04 cccee4e8604c442182ae7a2f59335eea,d4d611e81e4947998488be7877915955,10*
G04 Gerber Generator version 0.2*
G04 Scale: 100 percent, Rotated: No, Reflected: No *
G04 Dimensions in millimeters *
G04 leading zeros omitted , absolute positions ,4 integer and 5 decimal *
%FSLAX45Y45*%
%MOMM*%

%ADD21C,1.9812*%
%ADD23C,1.6096*%
%ADD25C,1.3970*%

%LPD*%
G36*
X4831079Y1328420D02*
G01*
X4829556Y1328673D01*
X4828031Y1329436D01*
X4827015Y1330452D01*
X4826254Y1331976D01*
X4826000Y1333500D01*
X4826000Y1435100D01*
X4826254Y1436623D01*
X4827015Y1438147D01*
X4828031Y1439163D01*
X4829556Y1439926D01*
X4831079Y1440179D01*
X4983479Y1440179D01*
X4985004Y1439926D01*
X4986527Y1439163D01*
X4987543Y1438147D01*
X4988306Y1436623D01*
X4988559Y1435100D01*
X4988559Y1333500D01*
X4988306Y1331976D01*
X4987543Y1330452D01*
X4986527Y1329436D01*
X4985004Y1328673D01*
X4983479Y1328420D01*
G37*
G36*
X4831079Y1150620D02*
G01*
X4829556Y1150873D01*
X4828031Y1151636D01*
X4827015Y1152652D01*
X4826254Y1154176D01*
X4826000Y1155700D01*
X4826000Y1257300D01*
X4826254Y1258823D01*
X4827015Y1260347D01*
X4828031Y1261363D01*
X4829556Y1262126D01*
X4831079Y1262379D01*
X4983479Y1262379D01*
X4985004Y1262126D01*
X4986527Y1261363D01*
X4987543Y1260347D01*
X4988306Y1258823D01*
X4988559Y1257300D01*
X4988559Y1155700D01*
X4988306Y1154176D01*
X4987543Y1152652D01*
X4986527Y1151636D01*
X4985004Y1150873D01*
X4983479Y1150620D01*
G37*
G36*
X5100320Y1150620D02*
G01*
X5098795Y1150873D01*
X5097272Y1151636D01*
X5096256Y1152652D01*
X5095493Y1154176D01*
X5095240Y1155700D01*
X5095240Y1257300D01*
X5095493Y1258823D01*
X5096256Y1260347D01*
X5097272Y1261363D01*
X5098795Y1262126D01*
X5100320Y1262379D01*
X5252720Y1262379D01*
X5254243Y1262126D01*
X5255768Y1261363D01*
X5256784Y1260347D01*
X5257545Y1258823D01*
X5257800Y1257300D01*
X5257800Y1155700D01*
X5257545Y1154176D01*
X5256784Y1152652D01*
X5255768Y1151636D01*
X5254243Y1150873D01*
X5252720Y1150620D01*
G37*
G36*
X5100320Y1328420D02*
G01*
X5098795Y1328673D01*
X5097272Y1329436D01*
X5096256Y1330452D01*
X5095493Y1331976D01*
X5095240Y1333500D01*
X5095240Y1435100D01*
X5095493Y1436623D01*
X5096256Y1438147D01*
X5097272Y1439163D01*
X5098795Y1439926D01*
X5100320Y1440179D01*
X5252720Y1440179D01*
X5254243Y1439926D01*
X5255768Y1439163D01*
X5256784Y1438147D01*
X5257545Y1436623D01*
X5257800Y1435100D01*
X5257800Y1333500D01*
X5257545Y1331976D01*
X5256784Y1330452D01*
X5255768Y1329436D01*
X5254243Y1328673D01*
X5252720Y1328420D01*
G37*
D21*
G01*
X5854700Y4000500D03*
G01*
X5600700Y4000500D03*
G01*
X5346700Y4000500D03*
G01*
X5092700Y4000500D03*
G01*
X4838700Y4000500D03*
G01*
X4584700Y4000500D03*
G01*
X4330700Y4000500D03*
G01*
X4076700Y4000500D03*
G01*
X3822700Y4000500D03*
G01*
X3568700Y4000500D03*
G01*
X3314700Y4000500D03*
G01*
X3060700Y4000500D03*
G01*
X5854700Y1968500D03*
G01*
X5600700Y1968500D03*
G01*
X5346700Y1968500D03*
G01*
X5092700Y1968500D03*
G01*
X4838700Y1968500D03*
G01*
X4584700Y1968500D03*
G01*
X4330700Y1968500D03*
G01*
X4076700Y1968500D03*
G01*
X3822700Y1968500D03*
G01*
X3568700Y1968500D03*
G01*
X3314700Y1968500D03*
G01*
X3060700Y1968500D03*
G01*
X6108700Y1968500D03*
G01*
X6362700Y1968500D03*
G01*
X6616700Y1968500D03*
G01*
X6870700Y1968500D03*
G36*
X5360161Y3284981D02*
G01*
X5360200Y3285020D01*
X5358676Y3285274D01*
X5357152Y3286036D01*
X5356136Y3287052D01*
X5355374Y3288576D01*
X5355120Y3290100D01*
X5355081Y3290062D01*
X5355081Y3440937D01*
X5355120Y3440899D01*
X5355374Y3442423D01*
X5356136Y3443947D01*
X5357152Y3444963D01*
X5358676Y3445725D01*
X5360200Y3445979D01*
X5360161Y3446018D01*
X5511038Y3446018D01*
X5510999Y3445979D01*
X5512523Y3445725D01*
X5514047Y3444963D01*
X5515063Y3443947D01*
X5515825Y3442423D01*
X5516079Y3440899D01*
X5516118Y3440937D01*
X5516118Y3290062D01*
X5516079Y3290100D01*
X5515825Y3288576D01*
X5515063Y3287052D01*
X5514047Y3286036D01*
X5512523Y3285274D01*
X5510999Y3285020D01*
X5511038Y3284981D01*
G37*
D23*
G01*
X5181600Y3365500D03*
G01*
X4927600Y3365500D03*
G01*
X4673600Y3365500D03*
G36*
X5408929Y4456684D02*
G01*
X5408929Y4456714D01*
X5407406Y4456968D01*
X5405881Y4457730D01*
X5404865Y4458746D01*
X5404104Y4460270D01*
X5403850Y4461794D01*
X5403850Y4591334D01*
X5404104Y4592858D01*
X5404865Y4594382D01*
X5405881Y4595398D01*
X5407406Y4596160D01*
X5408929Y4596414D01*
X5408929Y4596384D01*
X5538470Y4596384D01*
X5538470Y4596414D01*
X5539993Y4596160D01*
X5541518Y4595398D01*
X5542534Y4594382D01*
X5543295Y4592858D01*
X5543550Y4591334D01*
X5543550Y4461794D01*
X5543295Y4460270D01*
X5542534Y4458746D01*
X5541518Y4457730D01*
X5539993Y4456968D01*
X5538470Y4456714D01*
X5538470Y4456684D01*
G37*
D25*
G01*
X5219700Y4526559D03*
G01*
X4965700Y4526559D03*
G01*
X4711700Y4526559D03*
M02*
