G04 Layer: BottomSilkscreenLayer*
G04 EasyEDA v6.5.5, 2022-05-19 09:40:35*
G04 cccee4e8604c442182ae7a2f59335eea,d4d611e81e4947998488be7877915955,10*
G04 Gerber Generator version 0.2*
G04 Scale: 100 percent, Rotated: No, Reflected: No *
G04 Dimensions in millimeters *
G04 leading zeros omitted , absolute positions ,4 integer and 5 decimal *
%FSLAX45Y45*%
%MOMM*%

%ADD10C,0.2540*%
%ADD17C,0.1270*%
%ADD18C,0.2032*%
%ADD19C,0.1524*%
%ADD20C,0.1780*%

%LPD*%
G36*
X6233769Y3730091D02*
G01*
X6233566Y3730040D01*
X6228943Y3710584D01*
X6218986Y3665474D01*
X6190488Y3532530D01*
X6172047Y3445357D01*
X6152134Y3348482D01*
X6150203Y3337509D01*
X6150965Y3336137D01*
X6156299Y3331108D01*
X6165748Y3323793D01*
X6177889Y3315055D01*
X6191453Y3305810D01*
X6205067Y3296920D01*
X6217462Y3289401D01*
X6227216Y3284067D01*
X6230721Y3282543D01*
X6233210Y3282340D01*
X6236919Y3283102D01*
X6241694Y3284778D01*
X6247536Y3287369D01*
X6254343Y3290773D01*
X6270396Y3300018D01*
X6289700Y3312515D01*
X6298285Y3318510D01*
X6305296Y3323742D01*
X6310833Y3328415D01*
X6314998Y3332530D01*
X6317843Y3336137D01*
X6319469Y3339388D01*
X6319977Y3342284D01*
X6318961Y3350209D01*
X6316268Y3365296D01*
X6306667Y3412794D01*
X6293154Y3476142D01*
X6273647Y3564534D01*
X6258255Y3632149D01*
X6245199Y3687724D01*
X6240119Y3708298D01*
X6236309Y3722573D01*
G37*
G36*
X5706160Y3514090D02*
G01*
X5706262Y3512616D01*
X5709412Y3507079D01*
X5959500Y3118612D01*
X6010859Y3039262D01*
X6021781Y3021736D01*
X6030518Y3006852D01*
X6036970Y2994863D01*
X6040983Y2985973D01*
X6041999Y2982772D01*
X6042406Y2980385D01*
X6042152Y2978912D01*
X6007201Y2924454D01*
X5845911Y2674721D01*
X5723534Y2484323D01*
X5711037Y2464206D01*
X5708294Y2458466D01*
X5709869Y2457500D01*
X5716828Y2460955D01*
X5755081Y2485034D01*
X5942177Y2605227D01*
X6103112Y2709367D01*
X6235446Y2795524D01*
X6601053Y2559151D01*
X6746697Y2465527D01*
X6767322Y2452878D01*
X6747967Y2484120D01*
X6631635Y2664764D01*
X6424625Y2984804D01*
X6604812Y3262477D01*
X6679641Y3378555D01*
X6732574Y3461207D01*
X6759397Y3503777D01*
X6763359Y3511245D01*
X6763461Y3513226D01*
X6760616Y3512210D01*
X6744309Y3501948D01*
X6342532Y3242919D01*
X6235192Y3173984D01*
X6095085Y3264915D01*
X5838748Y3430219D01*
X5710682Y3512413D01*
X5707583Y3513988D01*
G37*
G36*
X5882690Y3070047D02*
G01*
X5877306Y3069183D01*
X5844844Y3062681D01*
X5723432Y3037332D01*
X5576468Y3005886D01*
X5523890Y2994456D01*
X5490210Y2986633D01*
X5490108Y2986430D01*
X5491632Y2985719D01*
X5500522Y2983077D01*
X5516524Y2978912D01*
X5565343Y2967228D01*
X5629452Y2952496D01*
X5726785Y2930804D01*
X5821121Y2910687D01*
X5866841Y2901746D01*
X5877915Y2900222D01*
X5880811Y2900680D01*
X5884011Y2902305D01*
X5887618Y2905048D01*
X5891682Y2909011D01*
X5896254Y2914345D01*
X5901436Y2921000D01*
X5907227Y2929128D01*
X5918911Y2946654D01*
X5928106Y2961335D01*
X5935116Y2973273D01*
X5939180Y2981096D01*
X5939790Y2982976D01*
X5939282Y2985262D01*
X5937707Y2988970D01*
X5935218Y2993948D01*
X5928004Y3006648D01*
X5918708Y3021634D01*
X5908548Y3037179D01*
X5898642Y3051403D01*
X5890209Y3062681D01*
X5886856Y3066592D01*
X5884316Y3069132D01*
G37*
G36*
X6584137Y3069742D02*
G01*
X6583781Y3069640D01*
X6528968Y2985058D01*
X6561277Y2934004D01*
X6571996Y2918815D01*
X6576872Y2912465D01*
X6581292Y2907284D01*
X6585051Y2903321D01*
X6588048Y2900781D01*
X6590131Y2899918D01*
X6595567Y2900730D01*
X6627520Y2906928D01*
X6681927Y2918053D01*
X6752234Y2932785D01*
X6830110Y2949397D01*
X6898741Y2964637D01*
X6950100Y2976626D01*
X6967423Y2980994D01*
X6978040Y2983992D01*
X6981240Y2985262D01*
X6981291Y2985465D01*
X6976059Y2987141D01*
X6942988Y2995066D01*
X6887362Y3007410D01*
X6818274Y3022346D01*
X6726732Y3041700D01*
X6660438Y3055366D01*
X6610197Y3065322D01*
X6593941Y3068320D01*
G37*
G36*
X6235141Y2691231D02*
G01*
X6150559Y2636469D01*
X6150508Y2635148D01*
X6151880Y2626258D01*
X6159296Y2587447D01*
X6171336Y2528062D01*
X6188049Y2447950D01*
X6203645Y2375001D01*
X6217818Y2309876D01*
X6228740Y2261666D01*
X6232398Y2246731D01*
X6234734Y2238908D01*
X6235242Y2239518D01*
X6236208Y2242058D01*
X6239154Y2252370D01*
X6243472Y2269236D01*
X6255359Y2319274D01*
X6270396Y2386076D01*
X6288786Y2471318D01*
X6303010Y2539085D01*
X6313627Y2591155D01*
X6319215Y2621026D01*
X6319774Y2625090D01*
X6319520Y2628900D01*
X6318351Y2632506D01*
X6315964Y2636266D01*
X6312154Y2640330D01*
X6306718Y2644952D01*
X6299301Y2650337D01*
X6277660Y2664460D01*
G37*
G36*
X3387445Y3231286D02*
G01*
X3290366Y3224225D01*
X3287078Y2978810D01*
X3451301Y2978810D01*
X3467760Y2978505D01*
X3482594Y2977540D01*
X3496005Y2975864D01*
X3508146Y2973425D01*
X3513836Y2971901D01*
X3519271Y2970174D01*
X3524504Y2968244D01*
X3529533Y2966110D01*
X3539185Y2961132D01*
X3543808Y2958287D01*
X3553663Y2951226D01*
X3558540Y2947314D01*
X3562858Y2943352D01*
X3566718Y2939440D01*
X3570122Y2935528D01*
X3573018Y2931566D01*
X3575405Y2927553D01*
X3577336Y2923489D01*
X3578809Y2919425D01*
X3579774Y2915208D01*
X3580282Y2910992D01*
X3580282Y2906623D01*
X3579876Y2902204D01*
X3578961Y2897632D01*
X3577539Y2892958D01*
X3575710Y2888132D01*
X3573424Y2883154D01*
X3570630Y2878023D01*
X3567379Y2872689D01*
X3563721Y2867202D01*
X3557930Y2859786D01*
X3554933Y2856687D01*
X3551732Y2853944D01*
X3548227Y2851556D01*
X3544417Y2849473D01*
X3540099Y2847695D01*
X3535273Y2846222D01*
X3529787Y2845003D01*
X3523589Y2844038D01*
X3508756Y2842666D01*
X3490010Y2842006D01*
X3478987Y2841853D01*
X3387445Y2841853D01*
X3387445Y2978810D01*
X3287078Y2978810D01*
X3286556Y2915056D01*
X3286556Y2851708D01*
X3287166Y2800908D01*
X3288334Y2766720D01*
X3289096Y2757170D01*
X3289757Y2753664D01*
X3290570Y2752394D01*
X3291840Y2751175D01*
X3293618Y2750007D01*
X3298545Y2747822D01*
X3305251Y2745892D01*
X3313531Y2744165D01*
X3323285Y2742641D01*
X3334359Y2741320D01*
X3346551Y2740253D01*
X3373780Y2738729D01*
X3403854Y2738018D01*
X3427526Y2738069D01*
X3451606Y2738577D01*
X3467658Y2739136D01*
X3498951Y2740914D01*
X3513937Y2742082D01*
X3528314Y2743454D01*
X3541826Y2745028D01*
X3554476Y2746806D01*
X3565956Y2748737D01*
X3576218Y2750870D01*
X3585108Y2753207D01*
X3592474Y2755696D01*
X3595522Y2757017D01*
X3600907Y2759760D01*
X3611422Y2766060D01*
X3621430Y2773273D01*
X3630929Y2781401D01*
X3635451Y2785770D01*
X3643985Y2795066D01*
X3651859Y2805074D01*
X3659022Y2815640D01*
X3662324Y2821127D01*
X3668268Y2832404D01*
X3673348Y2844038D01*
X3677564Y2856026D01*
X3679291Y2862072D01*
X3680764Y2868168D01*
X3682949Y2880461D01*
X3683660Y2886659D01*
X3684219Y2898952D01*
X3684066Y2904642D01*
X3683558Y2910484D01*
X3681577Y2922778D01*
X3678478Y2935579D01*
X3674364Y2948686D01*
X3669436Y2961741D01*
X3663797Y2974492D01*
X3657549Y2986786D01*
X3650894Y2998216D01*
X3643934Y3008680D01*
X3640429Y3013405D01*
X3636873Y3017774D01*
X3633317Y3021736D01*
X3629761Y3025292D01*
X3626256Y3028391D01*
X3622801Y3031032D01*
X3619449Y3033115D01*
X3616147Y3034639D01*
X3612946Y3035554D01*
X3603294Y3036874D01*
X3597910Y3039465D01*
X3594252Y3043377D01*
X3592880Y3048101D01*
X3593236Y3050133D01*
X3594201Y3052978D01*
X3597859Y3060954D01*
X3603447Y3071418D01*
X3610559Y3083712D01*
X3618839Y3097225D01*
X3627780Y3111296D01*
X3637076Y3125368D01*
X3646220Y3138728D01*
X3654907Y3150768D01*
X3662629Y3160928D01*
X3669080Y3168497D01*
X3671671Y3171139D01*
X3673754Y3172866D01*
X3677259Y3176879D01*
X3680714Y3183636D01*
X3683762Y3192119D01*
X3685946Y3201416D01*
X3686556Y3206038D01*
X3686708Y3210052D01*
X3686200Y3213455D01*
X3684930Y3216351D01*
X3682847Y3218789D01*
X3679850Y3220872D01*
X3675837Y3222548D01*
X3670655Y3223971D01*
X3664204Y3225139D01*
X3656431Y3226104D01*
X3636416Y3227679D01*
X3582924Y3231134D01*
X3534410Y3155340D01*
X3522218Y3136595D01*
X3506571Y3113938D01*
X3497529Y3102102D01*
X3489248Y3092602D01*
X3485286Y3088640D01*
X3481425Y3085134D01*
X3477615Y3082137D01*
X3473805Y3079546D01*
X3469995Y3077311D01*
X3466084Y3075482D01*
X3462070Y3073958D01*
X3453637Y3071825D01*
X3444341Y3070656D01*
X3433927Y3070199D01*
X3387445Y3070148D01*
G37*
G36*
X3971950Y3230168D02*
G01*
X3957828Y3229813D01*
X3944061Y3228949D01*
X3930853Y3227679D01*
X3918305Y3225850D01*
X3906570Y3223564D01*
X3895750Y3220821D01*
X3886098Y3217519D01*
X3876192Y3213201D01*
X3865524Y3207867D01*
X3855262Y3202279D01*
X3845356Y3196336D01*
X3835857Y3190036D01*
X3826713Y3183483D01*
X3817975Y3176625D01*
X3809644Y3169462D01*
X3801719Y3162096D01*
X3794150Y3154426D01*
X3787038Y3146501D01*
X3780282Y3138373D01*
X3773932Y3130042D01*
X3767988Y3121507D01*
X3762451Y3112770D01*
X3757371Y3103829D01*
X3752646Y3094736D01*
X3748379Y3085490D01*
X3744468Y3076092D01*
X3741013Y3066592D01*
X3738016Y3056940D01*
X3735374Y3047238D01*
X3733190Y3037382D01*
X3731412Y3027476D01*
X3730091Y3017469D01*
X3729228Y3007410D01*
X3728770Y2997352D01*
X3728720Y2987192D01*
X3729126Y2977083D01*
X3729990Y2966923D01*
X3731260Y2956763D01*
X3733037Y2946603D01*
X3735222Y2936544D01*
X3737864Y2926435D01*
X3740912Y2916428D01*
X3744468Y2906522D01*
X3748481Y2896616D01*
X3752951Y2886862D01*
X3757828Y2877159D01*
X3763213Y2867609D01*
X3769055Y2858160D01*
X3775354Y2848864D01*
X3782161Y2839720D01*
X3789426Y2830779D01*
X3797147Y2821940D01*
X3805326Y2813354D01*
X3814368Y2804566D01*
X3824630Y2795574D01*
X3835501Y2786837D01*
X3846728Y2778506D01*
X3857955Y2770886D01*
X3868775Y2764180D01*
X3878935Y2758592D01*
X3888028Y2754376D01*
X3896614Y2751429D01*
X3906265Y2748889D01*
X3916730Y2746806D01*
X3927856Y2745079D01*
X3939540Y2743758D01*
X3951732Y2742793D01*
X3964330Y2742234D01*
X3977233Y2742082D01*
X3990289Y2742285D01*
X4003497Y2742844D01*
X4016654Y2743758D01*
X4029760Y2745028D01*
X4042664Y2746603D01*
X4055262Y2748584D01*
X4067505Y2750820D01*
X4079290Y2753461D01*
X4090466Y2756357D01*
X4100982Y2759608D01*
X4110736Y2763113D01*
X4119626Y2766923D01*
X4131614Y2773172D01*
X4145229Y2781249D01*
X4150918Y2785110D01*
X4155846Y2788920D01*
X4160113Y2792679D01*
X4163669Y2796438D01*
X4166463Y2800197D01*
X4168597Y2804007D01*
X4170070Y2807868D01*
X4170832Y2811830D01*
X4170883Y2815945D01*
X4170324Y2820162D01*
X4169105Y2824581D01*
X4167225Y2829153D01*
X4164685Y2833979D01*
X4161485Y2839059D01*
X4157726Y2844444D01*
X4148226Y2856077D01*
X4143146Y2861767D01*
X4138117Y2866898D01*
X4133189Y2871470D01*
X4128414Y2875534D01*
X4123842Y2878988D01*
X4119473Y2881884D01*
X4115308Y2884170D01*
X4111498Y2885897D01*
X4107942Y2886964D01*
X4104792Y2887421D01*
X4101998Y2887218D01*
X4099610Y2886354D01*
X4097731Y2884830D01*
X4096359Y2882595D01*
X4095496Y2879699D01*
X4095191Y2876092D01*
X4093819Y2871622D01*
X4090162Y2868015D01*
X4084726Y2865577D01*
X4071416Y2863748D01*
X4065981Y2861310D01*
X4062272Y2857703D01*
X4060342Y2851708D01*
X4058564Y2850184D01*
X4055668Y2848813D01*
X4051808Y2847492D01*
X4046982Y2846273D01*
X4041292Y2845155D01*
X4027728Y2843377D01*
X4011676Y2842260D01*
X3993794Y2841853D01*
X3977284Y2841955D01*
X3963263Y2842463D01*
X3951325Y2843479D01*
X3941114Y2845155D01*
X3936492Y2846273D01*
X3932174Y2847594D01*
X3928059Y2849168D01*
X3924147Y2850997D01*
X3916578Y2855417D01*
X3909110Y2861056D01*
X3901287Y2868066D01*
X3892753Y2876550D01*
X3885641Y2884424D01*
X3878427Y2893517D01*
X3871264Y2903524D01*
X3864457Y2914142D01*
X3858107Y2924962D01*
X3852519Y2935732D01*
X3847744Y2946146D01*
X3844086Y2955798D01*
X3839972Y2969006D01*
X3837127Y2980334D01*
X3836212Y2985465D01*
X3835603Y2990342D01*
X3835298Y2994964D01*
X3835349Y2999536D01*
X3835755Y3004058D01*
X3836517Y3008579D01*
X3837584Y3013202D01*
X3840835Y3023006D01*
X3845509Y3034131D01*
X3851148Y3045917D01*
X3856888Y3056432D01*
X3863035Y3066186D01*
X3869639Y3075178D01*
X3876649Y3083407D01*
X3880307Y3087268D01*
X3888028Y3094380D01*
X3896207Y3100730D01*
X3904894Y3106420D01*
X3914089Y3111347D01*
X3923792Y3115614D01*
X3934104Y3119120D01*
X3944924Y3122015D01*
X3956304Y3124200D01*
X3968343Y3125724D01*
X3980942Y3126638D01*
X3994200Y3126841D01*
X4010406Y3126384D01*
X4025137Y3125165D01*
X4038498Y3123234D01*
X4044645Y3122015D01*
X4055872Y3118967D01*
X4060951Y3117138D01*
X4065676Y3115157D01*
X4070045Y3112973D01*
X4074058Y3110636D01*
X4077715Y3108096D01*
X4081068Y3105353D01*
X4084015Y3102406D01*
X4086656Y3099308D01*
X4088892Y3096006D01*
X4090822Y3092551D01*
X4092397Y3088894D01*
X4093616Y3085033D01*
X4094479Y3080969D01*
X4094987Y3076752D01*
X4095191Y3072333D01*
X4094987Y3067507D01*
X4094378Y3063341D01*
X4093159Y3059734D01*
X4091228Y3056737D01*
X4088434Y3054197D01*
X4084726Y3052064D01*
X4079951Y3050286D01*
X4073906Y3048863D01*
X4066590Y3047644D01*
X4047388Y3045815D01*
X3975303Y3041599D01*
X3968191Y2955137D01*
X4192219Y2961690D01*
X4196435Y3084372D01*
X4196689Y3099765D01*
X4196537Y3113278D01*
X4195826Y3125012D01*
X4194505Y3135274D01*
X4193590Y3139897D01*
X4192422Y3144215D01*
X4191000Y3148330D01*
X4189374Y3152140D01*
X4187494Y3155746D01*
X4185361Y3159201D01*
X4182872Y3162452D01*
X4180128Y3165602D01*
X4173677Y3171596D01*
X4165752Y3177387D01*
X4156354Y3183178D01*
X4145279Y3189224D01*
X4117695Y3202889D01*
X4104741Y3208934D01*
X4094276Y3213049D01*
X4082796Y3216656D01*
X4070451Y3219907D01*
X4057446Y3222701D01*
X4043832Y3225088D01*
X4029760Y3226968D01*
X4015435Y3228441D01*
X4000906Y3229508D01*
X3986377Y3230067D01*
G37*
G36*
X2780131Y3229965D02*
G01*
X2767939Y3229762D01*
X2758186Y3229051D01*
X2750616Y3227679D01*
X2744978Y3225596D01*
X2741015Y3222599D01*
X2738475Y3218586D01*
X2737104Y3213404D01*
X2736748Y3206953D01*
X2736951Y3201974D01*
X2737612Y3196488D01*
X2738628Y3190748D01*
X2739948Y3184906D01*
X2743454Y3173679D01*
X2745536Y3168599D01*
X2753969Y3151987D01*
X2765958Y3126232D01*
X2779725Y3095142D01*
X2802229Y3043428D01*
X2814940Y3015183D01*
X2926181Y3015183D01*
X2926486Y3017621D01*
X2927908Y3019602D01*
X2930448Y3021177D01*
X2934309Y3022396D01*
X2939491Y3023260D01*
X2946196Y3023870D01*
X2964535Y3024428D01*
X2986582Y3024378D01*
X2995625Y3024124D01*
X3003550Y3023616D01*
X3010408Y3022904D01*
X3016250Y3021990D01*
X3021177Y3020771D01*
X3025140Y3019298D01*
X3028340Y3017570D01*
X3030677Y3015488D01*
X3032302Y3013100D01*
X3033217Y3010408D01*
X3033522Y3007360D01*
X3032658Y3000705D01*
X3030169Y2995269D01*
X3026562Y2991561D01*
X3017672Y2988970D01*
X3014065Y2985566D01*
X3011627Y2980537D01*
X3010712Y2974390D01*
X3010357Y2970580D01*
X3009392Y2965754D01*
X3007868Y2960065D01*
X3003346Y2947060D01*
X3000502Y2940151D01*
X2993999Y2926384D01*
X2977286Y2894177D01*
X2956966Y2945638D01*
X2948940Y2964840D01*
X2938526Y2988259D01*
X2934004Y2997606D01*
X2928213Y3008630D01*
X2926791Y3012186D01*
X2926181Y3015183D01*
X2814940Y3015183D01*
X2826664Y2990088D01*
X2832404Y2975914D01*
X2834792Y2969107D01*
X2838196Y2957118D01*
X2839161Y2952292D01*
X2839466Y2948533D01*
X2840380Y2942539D01*
X2842818Y2937662D01*
X2846476Y2934360D01*
X2855315Y2931769D01*
X2858973Y2928061D01*
X2861411Y2922574D01*
X2862326Y2915869D01*
X2862529Y2912008D01*
X2863138Y2907588D01*
X2865374Y2897835D01*
X2868726Y2887827D01*
X2870657Y2883103D01*
X2878378Y2867456D01*
X2888691Y2845308D01*
X2905556Y2807004D01*
X2911297Y2794457D01*
X2917139Y2782468D01*
X2922727Y2771597D01*
X2927756Y2762504D01*
X2931972Y2755696D01*
X2933700Y2753360D01*
X2936900Y2749956D01*
X2940761Y2747111D01*
X2945130Y2744673D01*
X2949956Y2742742D01*
X2955239Y2741269D01*
X2960827Y2740253D01*
X2966720Y2739644D01*
X2972816Y2739440D01*
X2979064Y2739593D01*
X2985363Y2740152D01*
X2991713Y2741117D01*
X2998012Y2742387D01*
X3004159Y2743962D01*
X3010103Y2745892D01*
X3015843Y2748127D01*
X3021228Y2750616D01*
X3026257Y2753410D01*
X3030829Y2756458D01*
X3034842Y2759710D01*
X3038297Y2763215D01*
X3041142Y2766923D01*
X3043224Y2770784D01*
X3044494Y2774848D01*
X3045358Y2783128D01*
X3046577Y2788412D01*
X3048508Y2794660D01*
X3050997Y2801670D01*
X3054045Y2809240D01*
X3057550Y2817114D01*
X3065576Y2832912D01*
X3071622Y2844292D01*
X3078073Y2857246D01*
X3084677Y2871114D01*
X3096717Y2898394D01*
X3119729Y2956458D01*
X3131769Y2986024D01*
X3146856Y3021838D01*
X3162503Y3057855D01*
X3195269Y3131515D01*
X3202940Y3149346D01*
X3209340Y3164890D01*
X3214420Y3178302D01*
X3218281Y3189732D01*
X3220821Y3199333D01*
X3222091Y3207258D01*
X3222244Y3210661D01*
X3222040Y3213709D01*
X3221583Y3216402D01*
X3220770Y3218789D01*
X3219602Y3220872D01*
X3218180Y3222701D01*
X3216402Y3224225D01*
X3214319Y3225546D01*
X3211880Y3226663D01*
X3206140Y3228238D01*
X3199028Y3229254D01*
X3190697Y3229762D01*
X3170123Y3229965D01*
X3156102Y3229711D01*
X3150158Y3229356D01*
X3144926Y3228695D01*
X3140202Y3227730D01*
X3135934Y3226409D01*
X3132124Y3224631D01*
X3128619Y3222345D01*
X3125317Y3219500D01*
X3122168Y3215995D01*
X3119120Y3211830D01*
X3116021Y3206953D01*
X3109518Y3194608D01*
X3078632Y3127197D01*
X2964129Y3127248D01*
X2942793Y3127451D01*
X2924962Y3127908D01*
X2910281Y3128721D01*
X2898546Y3129838D01*
X2889402Y3131362D01*
X2885744Y3132277D01*
X2882646Y3133344D01*
X2880055Y3134512D01*
X2877972Y3135782D01*
X2876346Y3137204D01*
X2875178Y3138779D01*
X2874314Y3140456D01*
X2873857Y3142335D01*
X2872841Y3150971D01*
X2870352Y3156458D01*
X2866745Y3160115D01*
X2857855Y3163062D01*
X2854248Y3167481D01*
X2851810Y3174034D01*
X2850896Y3182010D01*
X2850591Y3187852D01*
X2849778Y3193288D01*
X2848406Y3198317D01*
X2846476Y3202990D01*
X2843987Y3207308D01*
X2840939Y3211271D01*
X2837383Y3214827D01*
X2833217Y3217976D01*
X2828544Y3220821D01*
X2823260Y3223209D01*
X2817469Y3225292D01*
X2811119Y3226968D01*
X2804210Y3228289D01*
X2796743Y3229203D01*
X2788716Y3229762D01*
G37*
G36*
X4501489Y3229965D02*
G01*
X4487164Y3229762D01*
X4473346Y3229102D01*
X4459986Y3228035D01*
X4447133Y3226511D01*
X4434687Y3224580D01*
X4422698Y3222091D01*
X4411116Y3219196D01*
X4399940Y3215741D01*
X4389120Y3211830D01*
X4378655Y3207410D01*
X4368546Y3202381D01*
X4358690Y3196894D01*
X4349191Y3190798D01*
X4339894Y3184144D01*
X4330903Y3176930D01*
X4322114Y3169158D01*
X4313580Y3160725D01*
X4305198Y3151682D01*
X4296968Y3142030D01*
X4288942Y3131769D01*
X4281017Y3120796D01*
X4273194Y3109214D01*
X4265472Y3096920D01*
X4257852Y3083966D01*
X4256328Y3080867D01*
X4254855Y3077210D01*
X4252163Y3068167D01*
X4249877Y3057296D01*
X4247946Y3044850D01*
X4246372Y3031286D01*
X4245203Y3016859D01*
X4244340Y3001975D01*
X4243887Y2980182D01*
X4350562Y2980182D01*
X4350918Y2991154D01*
X4352239Y3002178D01*
X4354525Y3013405D01*
X4357827Y3024682D01*
X4362399Y3037433D01*
X4367479Y3049270D01*
X4373118Y3060192D01*
X4376115Y3065373D01*
X4382566Y3075025D01*
X4389526Y3083864D01*
X4393184Y3087979D01*
X4401007Y3095548D01*
X4409389Y3102254D01*
X4418330Y3108198D01*
X4423003Y3110839D01*
X4432858Y3115513D01*
X4438040Y3117596D01*
X4443323Y3119424D01*
X4454448Y3122523D01*
X4460189Y3123793D01*
X4472228Y3125673D01*
X4478528Y3126384D01*
X4491532Y3127146D01*
X4507534Y3127146D01*
X4523790Y3126536D01*
X4531004Y3125927D01*
X4537608Y3125114D01*
X4543806Y3123996D01*
X4549597Y3122625D01*
X4555083Y3120948D01*
X4560366Y3118866D01*
X4565497Y3116478D01*
X4570577Y3113633D01*
X4575708Y3110382D01*
X4580890Y3106724D01*
X4591913Y3097834D01*
X4602988Y3087979D01*
X4611878Y3079597D01*
X4619040Y3071926D01*
X4622038Y3068218D01*
X4624679Y3064510D01*
X4627016Y3060750D01*
X4628997Y3056839D01*
X4630724Y3052826D01*
X4632198Y3048508D01*
X4633417Y3043936D01*
X4635195Y3033674D01*
X4636262Y3021482D01*
X4636820Y3006953D01*
X4637024Y2972003D01*
X4636617Y2957271D01*
X4635652Y2944977D01*
X4634890Y2939542D01*
X4633874Y2934563D01*
X4632655Y2929890D01*
X4631131Y2925470D01*
X4629353Y2921254D01*
X4627219Y2917190D01*
X4624730Y2913176D01*
X4618583Y2905099D01*
X4610760Y2896514D01*
X4601006Y2886913D01*
X4589932Y2876448D01*
X4580077Y2867609D01*
X4571136Y2860446D01*
X4562703Y2854706D01*
X4554474Y2850286D01*
X4550206Y2848508D01*
X4545888Y2847035D01*
X4541367Y2845816D01*
X4531563Y2843987D01*
X4520488Y2842920D01*
X4507636Y2842463D01*
X4492650Y2842463D01*
X4475276Y2842920D01*
X4460697Y2844038D01*
X4454296Y2844850D01*
X4448352Y2845917D01*
X4442866Y2847238D01*
X4437786Y2848813D01*
X4432960Y2850692D01*
X4428388Y2852877D01*
X4423968Y2855366D01*
X4419701Y2858262D01*
X4415434Y2861513D01*
X4406798Y2869336D01*
X4402226Y2873857D01*
X4392523Y2884474D01*
X4383836Y2895041D01*
X4379823Y2900273D01*
X4372660Y2910840D01*
X4366514Y2921406D01*
X4361383Y2931972D01*
X4359148Y2937256D01*
X4355541Y2947924D01*
X4354068Y2953258D01*
X4351934Y2963976D01*
X4350766Y2974746D01*
X4350562Y2980182D01*
X4243887Y2980182D01*
X4243882Y2972155D01*
X4244238Y2957982D01*
X4245000Y2944723D01*
X4246168Y2932734D01*
X4247743Y2922371D01*
X4249724Y2913989D01*
X4250893Y2910687D01*
X4252163Y2907944D01*
X4253534Y2905912D01*
X4259427Y2900578D01*
X4263085Y2894736D01*
X4265523Y2887878D01*
X4266641Y2877870D01*
X4267403Y2874619D01*
X4268622Y2871114D01*
X4270248Y2867355D01*
X4274769Y2859227D01*
X4280814Y2850388D01*
X4288129Y2840990D01*
X4296664Y2831287D01*
X4306112Y2821432D01*
X4316374Y2811576D01*
X4327245Y2801874D01*
X4338574Y2792577D01*
X4350207Y2783789D01*
X4361891Y2775712D01*
X4373473Y2768549D01*
X4384802Y2762453D01*
X4395266Y2757627D01*
X4405934Y2753309D01*
X4416856Y2749550D01*
X4427880Y2746349D01*
X4439107Y2743657D01*
X4450486Y2741523D01*
X4461916Y2739898D01*
X4473448Y2738780D01*
X4485030Y2738120D01*
X4496612Y2738018D01*
X4508246Y2738374D01*
X4519828Y2739186D01*
X4531410Y2740507D01*
X4542891Y2742285D01*
X4554321Y2744520D01*
X4565599Y2747213D01*
X4576775Y2750362D01*
X4587798Y2753969D01*
X4598619Y2757932D01*
X4609236Y2762402D01*
X4619650Y2767228D01*
X4629810Y2772511D01*
X4639665Y2778150D01*
X4649216Y2784195D01*
X4658461Y2790647D01*
X4667351Y2797454D01*
X4675886Y2804668D01*
X4684014Y2812237D01*
X4691735Y2820111D01*
X4699000Y2828391D01*
X4705756Y2837027D01*
X4712106Y2845968D01*
X4717897Y2855264D01*
X4723130Y2864866D01*
X4727549Y2874314D01*
X4731461Y2884576D01*
X4734915Y2895498D01*
X4737963Y2907030D01*
X4740503Y2919069D01*
X4742586Y2931566D01*
X4744262Y2944418D01*
X4745431Y2957474D01*
X4746193Y2970733D01*
X4746447Y2984042D01*
X4746244Y2997352D01*
X4745634Y3010560D01*
X4744516Y3023565D01*
X4742942Y3036316D01*
X4740960Y3048660D01*
X4738471Y3060598D01*
X4735525Y3071977D01*
X4732121Y3082747D01*
X4728260Y3092754D01*
X4723942Y3102000D01*
X4717897Y3113074D01*
X4711395Y3123641D01*
X4704486Y3133750D01*
X4697120Y3143402D01*
X4689398Y3152546D01*
X4681220Y3161233D01*
X4672685Y3169412D01*
X4663744Y3177082D01*
X4654397Y3184245D01*
X4644694Y3190900D01*
X4634585Y3197047D01*
X4624171Y3202686D01*
X4613402Y3207816D01*
X4602226Y3212439D01*
X4590745Y3216503D01*
X4578959Y3220059D01*
X4566818Y3223056D01*
X4554372Y3225546D01*
X4541570Y3227476D01*
X4528515Y3228848D01*
X4515154Y3229660D01*
G37*
G36*
X4872685Y3229965D02*
G01*
X4862017Y3229660D01*
X4852619Y3228848D01*
X4844440Y3227476D01*
X4837480Y3225495D01*
X4831689Y3222955D01*
X4827066Y3219856D01*
X4823612Y3216198D01*
X4821275Y3211880D01*
X4820208Y3208070D01*
X4819192Y3202635D01*
X4817414Y3187192D01*
X4816043Y3166465D01*
X4814925Y3141218D01*
X4814163Y3112160D01*
X4813554Y3046018D01*
X4813757Y3001467D01*
X4814976Y2929585D01*
X4815941Y2894990D01*
X4817160Y2862376D01*
X4818583Y2832557D01*
X4820208Y2806242D01*
X4822037Y2784297D01*
X4824069Y2767482D01*
X4825187Y2761234D01*
X4826304Y2756611D01*
X4827473Y2753614D01*
X4828082Y2752801D01*
X4831486Y2750058D01*
X4835956Y2747467D01*
X4841290Y2745130D01*
X4847285Y2743098D01*
X4853787Y2741422D01*
X4860544Y2740152D01*
X4867452Y2739390D01*
X4874260Y2739085D01*
X4881118Y2739390D01*
X4887823Y2740406D01*
X4894529Y2742184D01*
X4901184Y2744825D01*
X4908042Y2748432D01*
X4915052Y2753106D01*
X4922418Y2758846D01*
X4930140Y2765806D01*
X4938420Y2774086D01*
X4947208Y2783789D01*
X4956708Y2794914D01*
X4966970Y2807614D01*
X4978095Y2821940D01*
X4990185Y2838043D01*
X5059273Y2933446D01*
X5075224Y2954883D01*
X5084978Y2967380D01*
X5100116Y2986176D01*
X5116271Y3007360D01*
X5119878Y3011830D01*
X5122875Y3014726D01*
X5124246Y3015488D01*
X5125415Y3015792D01*
X5126532Y3015538D01*
X5127548Y3014726D01*
X5128463Y3013354D01*
X5129276Y3011322D01*
X5130596Y3005226D01*
X5131663Y2996184D01*
X5132425Y2983941D01*
X5133289Y2948736D01*
X5134051Y2853436D01*
X5134610Y2834741D01*
X5135372Y2818130D01*
X5136438Y2803448D01*
X5137912Y2790596D01*
X5139740Y2779522D01*
X5142026Y2770022D01*
X5144770Y2762097D01*
X5146344Y2758643D01*
X5148072Y2755544D01*
X5149900Y2752801D01*
X5151932Y2750312D01*
X5154117Y2748178D01*
X5156403Y2746298D01*
X5158892Y2744673D01*
X5164429Y2742234D01*
X5167426Y2741371D01*
X5174081Y2740253D01*
X5181498Y2739948D01*
X5189778Y2740253D01*
X5198922Y2741117D01*
X5231028Y2744774D01*
X5237175Y3229965D01*
X5193741Y3229965D01*
X5185410Y3229813D01*
X5177993Y3229406D01*
X5171338Y3228644D01*
X5165344Y3227476D01*
X5160010Y3225901D01*
X5155184Y3223818D01*
X5150764Y3221228D01*
X5146700Y3218027D01*
X5142839Y3214217D01*
X5139131Y3209747D01*
X5135473Y3204514D01*
X5128971Y3193999D01*
X5122113Y3183686D01*
X5114086Y3172256D01*
X5105247Y3160369D01*
X5096103Y3148685D01*
X5080203Y3129889D01*
X5066893Y3113786D01*
X5050332Y3092754D01*
X5031892Y3068624D01*
X5017668Y3049625D01*
X4961991Y2972562D01*
X4949901Y2956814D01*
X4944719Y2950667D01*
X4940147Y2945739D01*
X4936134Y2942082D01*
X4932578Y2939592D01*
X4929479Y2938373D01*
X4928108Y2938272D01*
X4926838Y2938475D01*
X4925669Y2938983D01*
X4924602Y2939846D01*
X4922723Y2942539D01*
X4921199Y2946603D01*
X4919980Y2951988D01*
X4919014Y2958795D01*
X4918252Y2966974D01*
X4917389Y2987598D01*
X4917084Y3014116D01*
X4917084Y3229965D01*
G37*
D19*
X5436615Y-212344D02*
G01*
X5327650Y-254000D01*
X5436615Y-212344D02*
G01*
X5327650Y-170942D01*
X5363972Y-238505D02*
G01*
X5363972Y-186436D01*
X5421122Y-63754D02*
G01*
X5431536Y-74168D01*
X5436615Y-89915D01*
X5436615Y-110489D01*
X5431536Y-126237D01*
X5421122Y-136652D01*
X5410708Y-136652D01*
X5400293Y-131318D01*
X5394959Y-126237D01*
X5389879Y-115823D01*
X5379465Y-84581D01*
X5374386Y-74168D01*
X5369052Y-69087D01*
X5358638Y-63754D01*
X5343143Y-63754D01*
X5332729Y-74168D01*
X5327650Y-89915D01*
X5327650Y-110489D01*
X5332729Y-126237D01*
X5343143Y-136652D01*
X5436615Y-29463D02*
G01*
X5327650Y-29463D01*
X5436615Y-29463D02*
G01*
X5327650Y11937D01*
X5436615Y53594D02*
G01*
X5327650Y11937D01*
X5436615Y53594D02*
G01*
X5327650Y53594D01*
X5436615Y87884D02*
G01*
X5327650Y87884D01*
X5436615Y87884D02*
G01*
X5436615Y134620D01*
X5431536Y150113D01*
X5426202Y155447D01*
X5415788Y160528D01*
X5405374Y160528D01*
X5394959Y155447D01*
X5389879Y150113D01*
X5384800Y134620D01*
X5384800Y87884D02*
G01*
X5384800Y134620D01*
X5379465Y150113D01*
X5374386Y155447D01*
X5363972Y160528D01*
X5348224Y160528D01*
X5337809Y155447D01*
X5332729Y150113D01*
X5327650Y134620D01*
X5327650Y87884D01*
X5374386Y194818D02*
G01*
X5374386Y288289D01*
X5436615Y322579D02*
G01*
X5327650Y322579D01*
X5436615Y322579D02*
G01*
X5327650Y364236D01*
X5436615Y405892D02*
G01*
X5327650Y364236D01*
X5436615Y405892D02*
G01*
X5327650Y405892D01*
X5436615Y476504D02*
G01*
X5327650Y476504D01*
X5436615Y440181D02*
G01*
X5436615Y512826D01*
X5436615Y547115D02*
G01*
X5327650Y547115D01*
X5436615Y547115D02*
G01*
X5436615Y593852D01*
X5431536Y609600D01*
X5426202Y614679D01*
X5415788Y619760D01*
X5405374Y619760D01*
X5394959Y614679D01*
X5389879Y609600D01*
X5384800Y593852D01*
X5384800Y547115D02*
G01*
X5384800Y593852D01*
X5379465Y609600D01*
X5374386Y614679D01*
X5363972Y619760D01*
X5348224Y619760D01*
X5337809Y614679D01*
X5332729Y609600D01*
X5327650Y593852D01*
X5327650Y547115D01*
X5436615Y685292D02*
G01*
X5431536Y669797D01*
X5415788Y659384D01*
X5389879Y654050D01*
X5374386Y654050D01*
X5348224Y659384D01*
X5332729Y669797D01*
X5327650Y685292D01*
X5327650Y695705D01*
X5332729Y711200D01*
X5348224Y721613D01*
X5374386Y726947D01*
X5389879Y726947D01*
X5415788Y721613D01*
X5431536Y711200D01*
X5436615Y695705D01*
X5436615Y685292D01*
X5374386Y761237D02*
G01*
X5374386Y854710D01*
X5436615Y920242D02*
G01*
X5431536Y904494D01*
X5415788Y894079D01*
X5389879Y889000D01*
X5374386Y889000D01*
X5348224Y894079D01*
X5332729Y904494D01*
X5327650Y920242D01*
X5327650Y930655D01*
X5332729Y946150D01*
X5348224Y956563D01*
X5374386Y961644D01*
X5389879Y961644D01*
X5415788Y956563D01*
X5431536Y946150D01*
X5436615Y930655D01*
X5436615Y920242D01*
X5436615Y1037589D02*
G01*
X5327650Y995934D01*
X5436615Y1037589D02*
G01*
X5327650Y1079245D01*
X5363972Y1011681D02*
G01*
X5363972Y1063497D01*
X5436615Y1123950D02*
G01*
X5436615Y1181100D01*
X5394959Y1149857D01*
X5394959Y1165352D01*
X5389879Y1175765D01*
X5384800Y1181100D01*
X5369052Y1186179D01*
X5358638Y1186179D01*
X5343143Y1181100D01*
X5332729Y1170686D01*
X5327650Y1154937D01*
X5327650Y1139444D01*
X5332729Y1123950D01*
X5337809Y1118615D01*
X5348224Y1113536D01*
X5436615Y1262126D02*
G01*
X5327650Y1220470D01*
X5436615Y1262126D02*
G01*
X5327650Y1303528D01*
X5363972Y1235963D02*
G01*
X5363972Y1288034D01*
X5410708Y1343152D02*
G01*
X5415788Y1343152D01*
X5426202Y1348231D01*
X5431536Y1353565D01*
X5436615Y1363979D01*
X5436615Y1384554D01*
X5431536Y1394968D01*
X5426202Y1400302D01*
X5415788Y1405381D01*
X5405374Y1405381D01*
X5394959Y1400302D01*
X5379465Y1389887D01*
X5327650Y1337818D01*
X5327650Y1410715D01*
X4672584Y1295400D02*
G01*
X4781550Y1295400D01*
X4672584Y1295400D02*
G01*
X4672584Y1259078D01*
X4677663Y1243329D01*
X4688077Y1233170D01*
X4698491Y1227836D01*
X4714240Y1222755D01*
X4740147Y1222755D01*
X4755641Y1227836D01*
X4766056Y1233170D01*
X4776470Y1243329D01*
X4781550Y1259078D01*
X4781550Y1295400D01*
X4693411Y1188465D02*
G01*
X4688077Y1178052D01*
X4672584Y1162304D01*
X4781550Y1162304D01*
X8027415Y2260600D02*
G01*
X7918450Y2260600D01*
X8027415Y2260600D02*
G01*
X8027415Y2307336D01*
X8022336Y2322829D01*
X8017002Y2328163D01*
X8006588Y2333244D01*
X7991093Y2333244D01*
X7980679Y2328163D01*
X7975600Y2322829D01*
X7970265Y2307336D01*
X7970265Y2260600D01*
X8027415Y2409189D02*
G01*
X7918450Y2367534D01*
X8027415Y2409189D02*
G01*
X7918450Y2450845D01*
X7954772Y2383281D02*
G01*
X7954772Y2435097D01*
X8027415Y2485136D02*
G01*
X7918450Y2485136D01*
X8027415Y2485136D02*
G01*
X8027415Y2531871D01*
X8022336Y2547365D01*
X8017002Y2552700D01*
X8006588Y2557779D01*
X7996174Y2557779D01*
X7985759Y2552700D01*
X7980679Y2547365D01*
X7975600Y2531871D01*
X7975600Y2485136D01*
X7975600Y2521457D02*
G01*
X7918450Y2557779D01*
X8027415Y2628392D02*
G01*
X7918450Y2628392D01*
X8027415Y2592070D02*
G01*
X8027415Y2664713D01*
X8027415Y2699004D02*
G01*
X7918450Y2699004D01*
X8001508Y2811271D02*
G01*
X8011922Y2806192D01*
X8022336Y2795778D01*
X8027415Y2785363D01*
X8027415Y2764536D01*
X8022336Y2754121D01*
X8011922Y2743707D01*
X8001508Y2738628D01*
X7985759Y2733294D01*
X7959852Y2733294D01*
X7944358Y2738628D01*
X7933943Y2743707D01*
X7923529Y2754121D01*
X7918450Y2764536D01*
X7918450Y2785363D01*
X7923529Y2795778D01*
X7933943Y2806192D01*
X7944358Y2811271D01*
X8027415Y2845562D02*
G01*
X7918450Y2845562D01*
X7918450Y2845562D02*
G01*
X7918450Y2908045D01*
X8027415Y2942336D02*
G01*
X7918450Y2942336D01*
X8027415Y2942336D02*
G01*
X8027415Y3009900D01*
X7975600Y2942336D02*
G01*
X7975600Y2983737D01*
X7918450Y2942336D02*
G01*
X7918450Y3009900D01*
X8027415Y3165602D02*
G01*
X7918450Y3124200D01*
X8027415Y3165602D02*
G01*
X7918450Y3207257D01*
X7954772Y3139694D02*
G01*
X7954772Y3191510D01*
X8027415Y3241547D02*
G01*
X7918450Y3241547D01*
X8027415Y3241547D02*
G01*
X8027415Y3288284D01*
X8022336Y3303778D01*
X8017002Y3309112D01*
X8006588Y3314192D01*
X7996174Y3314192D01*
X7985759Y3309112D01*
X7980679Y3303778D01*
X7975600Y3288284D01*
X7975600Y3241547D01*
X7975600Y3277870D02*
G01*
X7918450Y3314192D01*
X8001508Y3426460D02*
G01*
X8011922Y3421379D01*
X8022336Y3410965D01*
X8027415Y3400552D01*
X8027415Y3379723D01*
X8022336Y3369310D01*
X8011922Y3358895D01*
X8001508Y3353815D01*
X7985759Y3348481D01*
X7959852Y3348481D01*
X7944358Y3353815D01*
X7933943Y3358895D01*
X7923529Y3369310D01*
X7918450Y3379723D01*
X7918450Y3400552D01*
X7923529Y3410965D01*
X7933943Y3421379D01*
X7944358Y3426460D01*
X7959852Y3426460D01*
X7959852Y3400552D02*
G01*
X7959852Y3426460D01*
X8027415Y3491992D02*
G01*
X8022336Y3481578D01*
X8011922Y3471163D01*
X8001508Y3465829D01*
X7985759Y3460750D01*
X7959852Y3460750D01*
X7944358Y3465829D01*
X7933943Y3471163D01*
X7923529Y3481578D01*
X7918450Y3491992D01*
X7918450Y3512820D01*
X7923529Y3522979D01*
X7933943Y3533394D01*
X7944358Y3538728D01*
X7959852Y3543807D01*
X7985759Y3543807D01*
X8001508Y3538728D01*
X8011922Y3533394D01*
X8022336Y3522979D01*
X8027415Y3512820D01*
X8027415Y3491992D01*
X8027415Y3578097D02*
G01*
X7918450Y3578097D01*
X8027415Y3578097D02*
G01*
X7918450Y3650995D01*
X8027415Y3650995D02*
G01*
X7918450Y3650995D01*
X7849615Y2984500D02*
G01*
X7771638Y2984500D01*
X7756143Y2989579D01*
X7745729Y2999994D01*
X7740650Y3015742D01*
X7740650Y3026155D01*
X7745729Y3041650D01*
X7756143Y3052063D01*
X7771638Y3057144D01*
X7849615Y3057144D01*
X7828788Y3091434D02*
G01*
X7834122Y3101847D01*
X7849615Y3117595D01*
X7740650Y3117595D01*
D20*
X4010659Y2140457D02*
G01*
X4010659Y2218181D01*
X4010659Y2140457D02*
G01*
X4040124Y2218181D01*
X4069841Y2140457D02*
G01*
X4040124Y2218181D01*
X4069841Y2140457D02*
G01*
X4069841Y2218181D01*
X4116324Y2140457D02*
G01*
X4108958Y2144268D01*
X4101591Y2151634D01*
X4097781Y2159000D01*
X4094225Y2169921D01*
X4094225Y2188463D01*
X4097781Y2199639D01*
X4101591Y2207005D01*
X4108958Y2214371D01*
X4116324Y2218181D01*
X4131056Y2218181D01*
X4138422Y2214371D01*
X4145788Y2207005D01*
X4149597Y2199639D01*
X4153408Y2188463D01*
X4153408Y2169921D01*
X4149597Y2159000D01*
X4145788Y2151634D01*
X4138422Y2144268D01*
X4131056Y2140457D01*
X4116324Y2140457D01*
X4278375Y2151634D02*
G01*
X4271009Y2144268D01*
X4259834Y2140457D01*
X4245102Y2140457D01*
X4233925Y2144268D01*
X4226559Y2151634D01*
X4226559Y2159000D01*
X4230370Y2166365D01*
X4233925Y2169921D01*
X4241291Y2173731D01*
X4263390Y2181097D01*
X4271009Y2184907D01*
X4274565Y2188463D01*
X4278375Y2195829D01*
X4278375Y2207005D01*
X4271009Y2214371D01*
X4259834Y2218181D01*
X4245102Y2218181D01*
X4233925Y2214371D01*
X4226559Y2207005D01*
X4358131Y2159000D02*
G01*
X4354322Y2151634D01*
X4346956Y2144268D01*
X4339590Y2140457D01*
X4324858Y2140457D01*
X4317491Y2144268D01*
X4310125Y2151634D01*
X4306315Y2159000D01*
X4302759Y2169921D01*
X4302759Y2188463D01*
X4306315Y2199639D01*
X4310125Y2207005D01*
X4317491Y2214371D01*
X4324858Y2218181D01*
X4339590Y2218181D01*
X4346956Y2214371D01*
X4354322Y2207005D01*
X4358131Y2199639D01*
X4382515Y2140457D02*
G01*
X4382515Y2218181D01*
X4434331Y2140457D02*
G01*
X4382515Y2192273D01*
X4401058Y2173731D02*
G01*
X4434331Y2218181D01*
X4540504Y2140457D02*
G01*
X4511040Y2218181D01*
X4540504Y2140457D02*
G01*
X4570222Y2218181D01*
X4522215Y2192273D02*
G01*
X4559045Y2192273D01*
X4638802Y2140457D02*
G01*
X4601972Y2140457D01*
X4598161Y2173731D01*
X4601972Y2169921D01*
X4613147Y2166365D01*
X4624070Y2166365D01*
X4635245Y2169921D01*
X4642611Y2177542D01*
X4646168Y2188463D01*
X4646168Y2195829D01*
X4642611Y2207005D01*
X4635245Y2214371D01*
X4624070Y2218181D01*
X4613147Y2218181D01*
X4601972Y2214371D01*
X4598161Y2210562D01*
X4594606Y2203195D01*
X4799584Y2140457D02*
G01*
X4770120Y2218181D01*
X4799584Y2140457D02*
G01*
X4829302Y2218181D01*
X4781295Y2192273D02*
G01*
X4818125Y2192273D01*
X4890515Y2140457D02*
G01*
X4853686Y2192273D01*
X4909058Y2192273D01*
X4890515Y2140457D02*
G01*
X4890515Y2218181D01*
X5048504Y2140457D02*
G01*
X5019040Y2218181D01*
X5048504Y2140457D02*
G01*
X5078222Y2218181D01*
X5030215Y2192273D02*
G01*
X5067045Y2192273D01*
X5109972Y2140457D02*
G01*
X5150611Y2140457D01*
X5128513Y2169921D01*
X5139436Y2169921D01*
X5146802Y2173731D01*
X5150611Y2177542D01*
X5154168Y2188463D01*
X5154168Y2195829D01*
X5150611Y2207005D01*
X5143245Y2214371D01*
X5132070Y2218181D01*
X5121147Y2218181D01*
X5109972Y2214371D01*
X5106161Y2210562D01*
X5102606Y2203195D01*
X5302504Y2140457D02*
G01*
X5273040Y2218181D01*
X5302504Y2140457D02*
G01*
X5332222Y2218181D01*
X5284215Y2192273D02*
G01*
X5321045Y2192273D01*
X5360161Y2159000D02*
G01*
X5360161Y2155189D01*
X5363972Y2147823D01*
X5367527Y2144268D01*
X5375147Y2140457D01*
X5389879Y2140457D01*
X5397245Y2144268D01*
X5400802Y2147823D01*
X5404611Y2155189D01*
X5404611Y2162555D01*
X5400802Y2169921D01*
X5393436Y2181097D01*
X5356606Y2218181D01*
X5408168Y2218181D01*
X5574284Y2142997D02*
G01*
X5544820Y2220721D01*
X5574284Y2142997D02*
G01*
X5604002Y2220721D01*
X5555995Y2194813D02*
G01*
X5592825Y2194813D01*
X5628386Y2157729D02*
G01*
X5635752Y2154173D01*
X5646927Y2142997D01*
X5646927Y2220721D01*
X5815584Y2140457D02*
G01*
X5786120Y2218181D01*
X5815584Y2140457D02*
G01*
X5845302Y2218181D01*
X5797295Y2192273D02*
G01*
X5834125Y2192273D01*
X5891784Y2140457D02*
G01*
X5880608Y2144268D01*
X5873241Y2155189D01*
X5869686Y2173731D01*
X5869686Y2184907D01*
X5873241Y2203195D01*
X5880608Y2214371D01*
X5891784Y2218181D01*
X5899150Y2218181D01*
X5910325Y2214371D01*
X5917691Y2203195D01*
X5921247Y2184907D01*
X5921247Y2173731D01*
X5917691Y2155189D01*
X5910325Y2144268D01*
X5899150Y2140457D01*
X5891784Y2140457D01*
X6062472Y2159000D02*
G01*
X6058915Y2151634D01*
X6051550Y2144268D01*
X6043929Y2140457D01*
X6029197Y2140457D01*
X6021831Y2144268D01*
X6014465Y2151634D01*
X6010909Y2159000D01*
X6007100Y2169921D01*
X6007100Y2188463D01*
X6010909Y2199639D01*
X6014465Y2207005D01*
X6021831Y2214371D01*
X6029197Y2218181D01*
X6043929Y2218181D01*
X6051550Y2214371D01*
X6058915Y2207005D01*
X6062472Y2199639D01*
X6062472Y2188463D01*
X6043929Y2188463D02*
G01*
X6062472Y2188463D01*
X6086856Y2140457D02*
G01*
X6086856Y2218181D01*
X6086856Y2140457D02*
G01*
X6138672Y2218181D01*
X6138672Y2140457D02*
G01*
X6138672Y2218181D01*
X6163056Y2140457D02*
G01*
X6163056Y2218181D01*
X6163056Y2140457D02*
G01*
X6188963Y2140457D01*
X6199886Y2144268D01*
X6207506Y2151634D01*
X6211061Y2159000D01*
X6214872Y2169921D01*
X6214872Y2188463D01*
X6211061Y2199639D01*
X6207506Y2207005D01*
X6199886Y2214371D01*
X6188963Y2218181D01*
X6163056Y2218181D01*
X6291579Y2140457D02*
G01*
X6291579Y2218181D01*
X6291579Y2140457D02*
G01*
X6321043Y2218181D01*
X6350761Y2140457D02*
G01*
X6321043Y2218181D01*
X6350761Y2140457D02*
G01*
X6350761Y2218181D01*
X6375145Y2140457D02*
G01*
X6375145Y2218181D01*
X6375145Y2140457D02*
G01*
X6401054Y2140457D01*
X6411975Y2144268D01*
X6419341Y2151634D01*
X6423152Y2159000D01*
X6426708Y2169921D01*
X6426708Y2188463D01*
X6423152Y2199639D01*
X6419341Y2207005D01*
X6411975Y2214371D01*
X6401054Y2218181D01*
X6375145Y2218181D01*
X6512306Y2140457D02*
G01*
X6552945Y2140457D01*
X6530847Y2169921D01*
X6541770Y2169921D01*
X6549390Y2173731D01*
X6552945Y2177542D01*
X6556756Y2188463D01*
X6556756Y2195829D01*
X6552945Y2207005D01*
X6545579Y2214371D01*
X6534404Y2218181D01*
X6523481Y2218181D01*
X6512306Y2214371D01*
X6508750Y2210562D01*
X6504940Y2203195D01*
X6581140Y2140457D02*
G01*
X6610604Y2218181D01*
X6640068Y2140457D02*
G01*
X6610604Y2218181D01*
X6672072Y2140457D02*
G01*
X6712711Y2140457D01*
X6690359Y2169921D01*
X6701536Y2169921D01*
X6708902Y2173731D01*
X6712711Y2177542D01*
X6716268Y2188463D01*
X6716268Y2195829D01*
X6712711Y2207005D01*
X6705345Y2214371D01*
X6694170Y2218181D01*
X6682993Y2218181D01*
X6672072Y2214371D01*
X6668261Y2210562D01*
X6664706Y2203195D01*
X6784340Y2140457D02*
G01*
X6784340Y2218181D01*
X6784340Y2140457D02*
G01*
X6817613Y2140457D01*
X6828790Y2144268D01*
X6832345Y2147823D01*
X6836156Y2155189D01*
X6836156Y2162555D01*
X6832345Y2169921D01*
X6828790Y2173731D01*
X6817613Y2177542D01*
X6784340Y2177542D01*
X6810247Y2177542D02*
G01*
X6836156Y2218181D01*
X6912102Y2151634D02*
G01*
X6904736Y2144268D01*
X6893813Y2140457D01*
X6878827Y2140457D01*
X6867906Y2144268D01*
X6860540Y2151634D01*
X6860540Y2159000D01*
X6864095Y2166365D01*
X6867906Y2169921D01*
X6875272Y2173731D01*
X6897370Y2181097D01*
X6904736Y2184907D01*
X6908545Y2188463D01*
X6912102Y2195829D01*
X6912102Y2207005D01*
X6904736Y2214371D01*
X6893813Y2218181D01*
X6878827Y2218181D01*
X6867906Y2214371D01*
X6860540Y2207005D01*
X6962393Y2140457D02*
G01*
X6962393Y2218181D01*
X6936486Y2140457D02*
G01*
X6988302Y2140457D01*
X7412481Y2867660D02*
G01*
X7357109Y2867660D01*
X7345934Y2871470D01*
X7338568Y2878836D01*
X7334758Y2889757D01*
X7334758Y2897123D01*
X7338568Y2908300D01*
X7345934Y2915665D01*
X7357109Y2919476D01*
X7412481Y2919476D01*
X7401306Y2995421D02*
G01*
X7408672Y2988055D01*
X7412481Y2977134D01*
X7412481Y2962147D01*
X7408672Y2951226D01*
X7401306Y2943860D01*
X7393940Y2943860D01*
X7386574Y2947415D01*
X7383018Y2951226D01*
X7379208Y2958592D01*
X7371841Y2980689D01*
X7368031Y2988055D01*
X7364475Y2991865D01*
X7357109Y2995421D01*
X7345934Y2995421D01*
X7338568Y2988055D01*
X7334758Y2977134D01*
X7334758Y2962147D01*
X7338568Y2951226D01*
X7345934Y2943860D01*
X7412481Y3019805D02*
G01*
X7334758Y3019805D01*
X7412481Y3019805D02*
G01*
X7412481Y3053079D01*
X7408672Y3064255D01*
X7405115Y3068065D01*
X7397750Y3071621D01*
X7390384Y3071621D01*
X7383018Y3068065D01*
X7379208Y3064255D01*
X7375397Y3053079D01*
X7375397Y3019805D02*
G01*
X7375397Y3053079D01*
X7371841Y3064255D01*
X7368031Y3068065D01*
X7360665Y3071621D01*
X7349743Y3071621D01*
X7342377Y3068065D01*
X7338568Y3064255D01*
X7334758Y3053079D01*
X7334758Y3019805D01*
X2999740Y2142997D02*
G01*
X2999740Y2220721D01*
X2999740Y2142997D02*
G01*
X3051556Y2220721D01*
X3051556Y2142997D02*
G01*
X3051556Y2220721D01*
X3131311Y2161539D02*
G01*
X3127502Y2154173D01*
X3120136Y2146807D01*
X3112770Y2142997D01*
X3098038Y2142997D01*
X3090672Y2146807D01*
X3083306Y2154173D01*
X3079495Y2161539D01*
X3075940Y2172462D01*
X3075940Y2191004D01*
X3079495Y2202179D01*
X3083306Y2209545D01*
X3090672Y2216912D01*
X3098038Y2220721D01*
X3112770Y2220721D01*
X3120136Y2216912D01*
X3127502Y2209545D01*
X3131311Y2202179D01*
X3277108Y2142997D02*
G01*
X3277108Y2220721D01*
X3251200Y2142997D02*
G01*
X3303015Y2142997D01*
X3327400Y2142997D02*
G01*
X3378961Y2220721D01*
X3378961Y2142997D02*
G01*
X3327400Y2220721D01*
X3512820Y2142997D02*
G01*
X3512820Y2220721D01*
X3512820Y2142997D02*
G01*
X3546093Y2142997D01*
X3557270Y2146807D01*
X3560825Y2150363D01*
X3564636Y2157729D01*
X3564636Y2165095D01*
X3560825Y2172462D01*
X3557270Y2176271D01*
X3546093Y2180081D01*
X3512820Y2180081D01*
X3538727Y2180081D02*
G01*
X3564636Y2220721D01*
X3589020Y2142997D02*
G01*
X3640581Y2220721D01*
X3640581Y2142997D02*
G01*
X3589020Y2220721D01*
X3782059Y2142997D02*
G01*
X3782059Y2220721D01*
X3782059Y2142997D02*
G01*
X3811524Y2220721D01*
X3841241Y2142997D02*
G01*
X3811524Y2220721D01*
X3841241Y2142997D02*
G01*
X3841241Y2220721D01*
X3865625Y2142997D02*
G01*
X3865625Y2220721D01*
X3013456Y3769613D02*
G01*
X3006090Y3762247D01*
X2994913Y3758437D01*
X2980181Y3758437D01*
X2969006Y3762247D01*
X2961640Y3769613D01*
X2961640Y3776979D01*
X2965450Y3784345D01*
X2969006Y3787902D01*
X2976372Y3791712D01*
X2998470Y3799078D01*
X3006090Y3802887D01*
X3009645Y3806444D01*
X3013456Y3813810D01*
X3013456Y3824986D01*
X3006090Y3832352D01*
X2994913Y3836162D01*
X2980181Y3836162D01*
X2969006Y3832352D01*
X2961640Y3824986D01*
X3037840Y3758437D02*
G01*
X3037840Y3836162D01*
X3037840Y3758437D02*
G01*
X3063747Y3758437D01*
X3074670Y3762247D01*
X3082036Y3769613D01*
X3085845Y3776979D01*
X3089402Y3787902D01*
X3089402Y3806444D01*
X3085845Y3817620D01*
X3082036Y3824986D01*
X3074670Y3832352D01*
X3063747Y3836162D01*
X3037840Y3836162D01*
X3143504Y3758437D02*
G01*
X3113786Y3836162D01*
X3143504Y3758437D02*
G01*
X3172968Y3836162D01*
X3124961Y3810254D02*
G01*
X3162045Y3810254D01*
X3267456Y3769613D02*
G01*
X3260090Y3762247D01*
X3248913Y3758437D01*
X3234181Y3758437D01*
X3223006Y3762247D01*
X3215640Y3769613D01*
X3215640Y3776979D01*
X3219450Y3784345D01*
X3223006Y3787902D01*
X3230372Y3791712D01*
X3252470Y3799078D01*
X3260090Y3802887D01*
X3263645Y3806444D01*
X3267456Y3813810D01*
X3267456Y3824986D01*
X3260090Y3832352D01*
X3248913Y3836162D01*
X3234181Y3836162D01*
X3223006Y3832352D01*
X3215640Y3824986D01*
X3347211Y3776979D02*
G01*
X3343402Y3769613D01*
X3336036Y3762247D01*
X3328670Y3758437D01*
X3313938Y3758437D01*
X3306572Y3762247D01*
X3299206Y3769613D01*
X3295395Y3776979D01*
X3291840Y3787902D01*
X3291840Y3806444D01*
X3295395Y3817620D01*
X3299206Y3824986D01*
X3306572Y3832352D01*
X3313938Y3836162D01*
X3328670Y3836162D01*
X3336036Y3832352D01*
X3343402Y3824986D01*
X3347211Y3817620D01*
X3371595Y3758437D02*
G01*
X3371595Y3836162D01*
X3371595Y3836162D02*
G01*
X3416045Y3836162D01*
X3502659Y3758437D02*
G01*
X3502659Y3836162D01*
X3502659Y3758437D02*
G01*
X3528568Y3758437D01*
X3539490Y3762247D01*
X3547109Y3769613D01*
X3550665Y3776979D01*
X3554475Y3787902D01*
X3554475Y3806444D01*
X3550665Y3817620D01*
X3547109Y3824986D01*
X3539490Y3832352D01*
X3528568Y3836162D01*
X3502659Y3836162D01*
X3582415Y3776979D02*
G01*
X3582415Y3773170D01*
X3586225Y3765804D01*
X3589781Y3762247D01*
X3597147Y3758437D01*
X3612134Y3758437D01*
X3619500Y3762247D01*
X3623056Y3765804D01*
X3626865Y3773170D01*
X3626865Y3780536D01*
X3623056Y3787902D01*
X3615690Y3799078D01*
X3578859Y3836162D01*
X3630422Y3836162D01*
X3759200Y3758437D02*
G01*
X3759200Y3836162D01*
X3759200Y3758437D02*
G01*
X3785108Y3758437D01*
X3796029Y3762247D01*
X3803650Y3769613D01*
X3807206Y3776979D01*
X3811015Y3787902D01*
X3811015Y3806444D01*
X3807206Y3817620D01*
X3803650Y3824986D01*
X3796029Y3832352D01*
X3785108Y3836162D01*
X3759200Y3836162D01*
X3842765Y3758437D02*
G01*
X3883406Y3758437D01*
X3861308Y3787902D01*
X3872229Y3787902D01*
X3879595Y3791712D01*
X3883406Y3795521D01*
X3886961Y3806444D01*
X3886961Y3813810D01*
X3883406Y3824986D01*
X3876040Y3832352D01*
X3864863Y3836162D01*
X3853688Y3836162D01*
X3842765Y3832352D01*
X3838956Y3828542D01*
X3835400Y3821176D01*
X4010659Y3758437D02*
G01*
X4010659Y3836162D01*
X4010659Y3758437D02*
G01*
X4036568Y3758437D01*
X4047490Y3762247D01*
X4055109Y3769613D01*
X4058665Y3776979D01*
X4062475Y3787902D01*
X4062475Y3806444D01*
X4058665Y3817620D01*
X4055109Y3824986D01*
X4047490Y3832352D01*
X4036568Y3836162D01*
X4010659Y3836162D01*
X4123690Y3758437D02*
G01*
X4086859Y3810254D01*
X4142231Y3810254D01*
X4123690Y3758437D02*
G01*
X4123690Y3836162D01*
X4264659Y3758437D02*
G01*
X4264659Y3836162D01*
X4264659Y3758437D02*
G01*
X4290568Y3758437D01*
X4301490Y3762247D01*
X4309109Y3769613D01*
X4312665Y3776979D01*
X4316475Y3787902D01*
X4316475Y3806444D01*
X4312665Y3817620D01*
X4309109Y3824986D01*
X4301490Y3832352D01*
X4290568Y3836162D01*
X4264659Y3836162D01*
X4385056Y3758437D02*
G01*
X4348225Y3758437D01*
X4344415Y3791712D01*
X4348225Y3787902D01*
X4359147Y3784345D01*
X4370324Y3784345D01*
X4381500Y3787902D01*
X4388865Y3795521D01*
X4392422Y3806444D01*
X4392422Y3813810D01*
X4388865Y3824986D01*
X4381500Y3832352D01*
X4370324Y3836162D01*
X4359147Y3836162D01*
X4348225Y3832352D01*
X4344415Y3828542D01*
X4340859Y3821176D01*
X4523740Y3758437D02*
G01*
X4523740Y3836162D01*
X4523740Y3758437D02*
G01*
X4549647Y3758437D01*
X4560570Y3762247D01*
X4568190Y3769613D01*
X4571745Y3776979D01*
X4575556Y3787902D01*
X4575556Y3806444D01*
X4571745Y3817620D01*
X4568190Y3824986D01*
X4560570Y3832352D01*
X4549647Y3836162D01*
X4523740Y3836162D01*
X4644136Y3769613D02*
G01*
X4640579Y3762247D01*
X4629404Y3758437D01*
X4622038Y3758437D01*
X4610861Y3762247D01*
X4603495Y3773170D01*
X4599940Y3791712D01*
X4599940Y3810254D01*
X4603495Y3824986D01*
X4610861Y3832352D01*
X4622038Y3836162D01*
X4625847Y3836162D01*
X4636770Y3832352D01*
X4644136Y3824986D01*
X4647945Y3813810D01*
X4647945Y3810254D01*
X4644136Y3799078D01*
X4636770Y3791712D01*
X4625847Y3787902D01*
X4622038Y3787902D01*
X4610861Y3791712D01*
X4603495Y3799078D01*
X4599940Y3810254D01*
X4780279Y3758437D02*
G01*
X4780279Y3836162D01*
X4780279Y3758437D02*
G01*
X4806188Y3758437D01*
X4817109Y3762247D01*
X4824729Y3769613D01*
X4828286Y3776979D01*
X4832095Y3787902D01*
X4832095Y3806444D01*
X4828286Y3817620D01*
X4824729Y3824986D01*
X4817109Y3832352D01*
X4806188Y3836162D01*
X4780279Y3836162D01*
X4908041Y3758437D02*
G01*
X4871211Y3836162D01*
X4856479Y3758437D02*
G01*
X4908041Y3758437D01*
X5026659Y3755897D02*
G01*
X5026659Y3833621D01*
X5026659Y3755897D02*
G01*
X5052568Y3755897D01*
X5063490Y3759707D01*
X5071109Y3767073D01*
X5074665Y3774439D01*
X5078475Y3785362D01*
X5078475Y3803904D01*
X5074665Y3815079D01*
X5071109Y3822445D01*
X5063490Y3829812D01*
X5052568Y3833621D01*
X5026659Y3833621D01*
X5121147Y3755897D02*
G01*
X5110225Y3759707D01*
X5106415Y3767073D01*
X5106415Y3774439D01*
X5110225Y3781805D01*
X5117591Y3785362D01*
X5132324Y3789171D01*
X5143500Y3792981D01*
X5150865Y3800347D01*
X5154422Y3807713D01*
X5154422Y3818636D01*
X5150865Y3826002D01*
X5147056Y3829812D01*
X5136134Y3833621D01*
X5121147Y3833621D01*
X5110225Y3829812D01*
X5106415Y3826002D01*
X5102859Y3818636D01*
X5102859Y3807713D01*
X5106415Y3800347D01*
X5113781Y3792981D01*
X5124958Y3789171D01*
X5139690Y3785362D01*
X5147056Y3781805D01*
X5150865Y3774439D01*
X5150865Y3767073D01*
X5147056Y3759707D01*
X5136134Y3755897D01*
X5121147Y3755897D01*
X5626100Y3702557D02*
G01*
X5655563Y3780281D01*
X5685281Y3702557D02*
G01*
X5655563Y3780281D01*
X5709665Y3702557D02*
G01*
X5709665Y3757929D01*
X5713222Y3769105D01*
X5720588Y3776471D01*
X5731763Y3780281D01*
X5739129Y3780281D01*
X5750306Y3776471D01*
X5757672Y3769105D01*
X5761227Y3757929D01*
X5761227Y3702557D01*
X5837427Y3713734D02*
G01*
X5830061Y3706368D01*
X5818886Y3702557D01*
X5804154Y3702557D01*
X5793231Y3706368D01*
X5785865Y3713734D01*
X5785865Y3721100D01*
X5789422Y3728465D01*
X5793231Y3732021D01*
X5800597Y3735831D01*
X5822695Y3743197D01*
X5830061Y3747007D01*
X5833872Y3750563D01*
X5837427Y3757929D01*
X5837427Y3769105D01*
X5830061Y3776471D01*
X5818886Y3780281D01*
X5804154Y3780281D01*
X5793231Y3776471D01*
X5785865Y3769105D01*
X5861811Y3702557D02*
G01*
X5861811Y3780281D01*
X5861811Y3702557D02*
G01*
X5895086Y3702557D01*
X5906261Y3706368D01*
X5909818Y3709923D01*
X5913627Y3717289D01*
X5913627Y3724655D01*
X5909818Y3732021D01*
X5906261Y3735831D01*
X5895086Y3739642D01*
X5861811Y3739642D02*
G01*
X5895086Y3739642D01*
X5906261Y3743197D01*
X5909818Y3747007D01*
X5913627Y3754373D01*
X5913627Y3765295D01*
X5909818Y3772662D01*
X5906261Y3776471D01*
X5895086Y3780281D01*
X5861811Y3780281D01*
X5539740Y3755897D02*
G01*
X5539740Y3833621D01*
X5539740Y3755897D02*
G01*
X5587745Y3755897D01*
X5539740Y3792981D02*
G01*
X5569204Y3792981D01*
X5539740Y3833621D02*
G01*
X5587745Y3833621D01*
X5612129Y3755897D02*
G01*
X5612129Y3833621D01*
X5612129Y3755897D02*
G01*
X5663945Y3833621D01*
X5663945Y3755897D02*
G01*
X5663945Y3833621D01*
X5770879Y3755897D02*
G01*
X5770879Y3833621D01*
X5770879Y3833621D02*
G01*
X5815329Y3833621D01*
X5839713Y3755897D02*
G01*
X5843270Y3759707D01*
X5847079Y3755897D01*
X5843270Y3752087D01*
X5839713Y3755897D01*
X5843270Y3781805D02*
G01*
X5843270Y3833621D01*
X5904738Y3767073D02*
G01*
X5904738Y3833621D01*
X5871463Y3800347D02*
G01*
X5938011Y3800347D01*
D10*
X4864100Y1447800D02*
G01*
X4864100Y1143000D01*
X5219700Y1143000D01*
X5219700Y1447800D01*
X4864100Y1447800D01*
D17*
X7666581Y2684500D02*
G01*
X7621572Y2684500D01*
X7621572Y2644495D01*
X7551574Y2644495D01*
X7121578Y2644495D01*
X7121578Y2764513D01*
X7261583Y2764513D01*
X7261583Y3204486D01*
X7121578Y3204486D01*
X7121578Y3324504D01*
X7551574Y3324504D01*
X7621572Y3324504D01*
X7621572Y3284499D01*
X7661582Y3284499D01*
X7686573Y3264507D02*
G01*
X7686573Y2709496D01*
D18*
X7621572Y2644495D02*
G01*
X7681569Y2584500D01*
X7621572Y3324504D02*
G01*
X7681569Y3384499D01*
D17*
X7551574Y3324504D02*
G01*
X7551574Y2644495D01*
D19*
X2679700Y4127500D02*
G01*
X7251700Y4127500D01*
X7251700Y1841500D02*
G01*
X2679700Y1841500D01*
X2425700Y2095500D02*
G01*
X2425700Y3873500D01*
X7505700Y3873500D02*
G01*
X7505700Y2095500D01*
G75*
G01*
X7251700Y2222500D02*
G02*
X7251014Y2222500I-343J-127000D01*
G75*
G01*
X7251700Y4000500D02*
G02*
X7251014Y4000500I-343J-127000D01*
G75*
G01*
X2679700Y2222500D02*
G02*
X2679040Y2222500I-330J-127000D01*
G75*
G01*
X2679700Y4000500D02*
G02*
X2679040Y4000500I-330J-127000D01*
G75*
G01*
X2679700Y1841500D02*
G02*
X2425700Y2095500I0J254000D01*
G75*
G01*
X2425700Y3873500D02*
G02*
X2679700Y4127500I254000J0D01*
G75*
G01*
X7251700Y4127500D02*
G02*
X7505700Y3873500I0J-254000D01*
G75*
G01*
X7505700Y2095500D02*
G02*
X7251700Y1841500I-254000J0D01*
D17*
G75*
G01*
X7661580Y3284499D02*
G02*
X7686573Y3264510I1493J-23753D01*
G75*
G01*
X7686573Y2709494D02*
G02*
X7666584Y2684501I-23753J-1493D01*
M02*
