G04 Layer: TopLayer*
G04 EasyEDA v6.5.5, 2022-05-19 09:40:35*
G04 cccee4e8604c442182ae7a2f59335eea,d4d611e81e4947998488be7877915955,10*
G04 Gerber Generator version 0.2*
G04 Scale: 100 percent, Rotated: No, Reflected: No *
G04 Dimensions in millimeters *
G04 leading zeros omitted , absolute positions ,4 integer and 5 decimal *
%FSLAX45Y45*%
%MOMM*%

%ADD10C,0.2540*%
%ADD11C,1.7780*%
%ADD12R,1.5080X1.5080*%
%ADD13C,1.5080*%
%ADD15C,1.2954*%

%LPD*%
D10*
X3568702Y4000497D02*
G01*
X4015132Y3554067D01*
X4739032Y3554067D01*
X4927602Y3365497D01*
X3822702Y4000497D02*
G01*
X4118637Y3704562D01*
X4842537Y3704562D01*
X5181602Y3365497D01*
X4330702Y4000497D02*
G01*
X4625240Y4295035D01*
X4988181Y4295035D01*
X5219702Y4526556D01*
D11*
G01*
X5854700Y4000500D03*
G01*
X5600700Y4000500D03*
G01*
X5346700Y4000500D03*
G01*
X5092700Y4000500D03*
G01*
X4838700Y4000500D03*
G01*
X4584700Y4000500D03*
G01*
X4330700Y4000500D03*
G01*
X4076700Y4000500D03*
G01*
X3822700Y4000500D03*
G01*
X3568700Y4000500D03*
G01*
X3314700Y4000500D03*
G01*
X3060700Y4000500D03*
G01*
X5854700Y1968500D03*
G01*
X5600700Y1968500D03*
G01*
X5346700Y1968500D03*
G01*
X5092700Y1968500D03*
G01*
X4838700Y1968500D03*
G01*
X4584700Y1968500D03*
G01*
X4330700Y1968500D03*
G01*
X4076700Y1968500D03*
G01*
X3822700Y1968500D03*
G01*
X3568700Y1968500D03*
G01*
X3314700Y1968500D03*
G01*
X3060700Y1968500D03*
G01*
X6108700Y1968500D03*
G01*
X6362700Y1968500D03*
G01*
X6616700Y1968500D03*
G01*
X6870700Y1968500D03*
D12*
G01*
X5435600Y3365500D03*
D13*
G01*
X5181600Y3365500D03*
G01*
X4927600Y3365500D03*
G01*
X4673600Y3365500D03*
G36*
X5408929Y4591334D02*
G01*
X5538470Y4591334D01*
X5538470Y4461794D01*
X5408929Y4461794D01*
G37*
D15*
G01*
X5219700Y4526559D03*
G01*
X4965700Y4526559D03*
G01*
X4711700Y4526559D03*
M02*
