G04 Layer: BottomLayer*
G04 EasyEDA v6.5.5, 2022-05-19 09:40:35*
G04 cccee4e8604c442182ae7a2f59335eea,d4d611e81e4947998488be7877915955,10*
G04 Gerber Generator version 0.2*
G04 Scale: 100 percent, Rotated: No, Reflected: No *
G04 Dimensions in millimeters *
G04 leading zeros omitted , absolute positions ,4 integer and 5 decimal *
%FSLAX45Y45*%
%MOMM*%

%ADD10C,0.2540*%
%ADD11C,1.7780*%
%ADD12R,1.5080X1.5080*%
%ADD13C,1.5080*%
%ADD15C,1.2954*%

%LPD*%
D10*
X5435602Y3365497D02*
G01*
X5435602Y3468824D01*
X5854702Y4000497D02*
G01*
X5854702Y3887924D01*
X5435602Y3468824D01*
X5473702Y4433872D02*
G01*
X5854702Y4052872D01*
X5854702Y4000497D01*
X5473702Y4526556D02*
G01*
X5473702Y4433872D01*
X4673602Y3365497D02*
G01*
X4711702Y3403597D01*
X4711702Y4526556D01*
X4711727Y2092017D02*
G01*
X4711727Y3327372D01*
X4673602Y3365497D01*
X4803167Y1384297D02*
G01*
X4711727Y1475737D01*
X4711727Y2092017D01*
X4711727Y2092017D02*
G01*
X5985182Y2092017D01*
X6108702Y1968497D01*
X4907282Y1384297D02*
G01*
X4803167Y1384297D01*
X4907282Y1206497D02*
G01*
X5011397Y1206497D01*
X5854702Y1968497D02*
G01*
X5854702Y1712567D01*
X5269740Y1127605D01*
X5070604Y1127605D01*
X5011397Y1186812D01*
X5011397Y1206497D01*
X5176522Y1206497D02*
G01*
X5280637Y1206497D01*
X5600702Y1968497D02*
G01*
X5600702Y1526562D01*
X5280637Y1206497D01*
X5176522Y1384297D02*
G01*
X5280637Y1384297D01*
X5346702Y1968497D02*
G01*
X5346702Y1450362D01*
X5280637Y1384297D01*
G36*
X4831079Y1435100D02*
G01*
X4831079Y1333500D01*
X4983479Y1333500D01*
X4983479Y1435100D01*
G37*
G36*
X4831079Y1257300D02*
G01*
X4831079Y1155700D01*
X4983479Y1155700D01*
X4983479Y1257300D01*
G37*
G36*
X5100320Y1257300D02*
G01*
X5100320Y1155700D01*
X5252720Y1155700D01*
X5252720Y1257300D01*
G37*
G36*
X5100320Y1435100D02*
G01*
X5100320Y1333500D01*
X5252720Y1333500D01*
X5252720Y1435100D01*
G37*
D11*
G01*
X5854700Y4000500D03*
G01*
X5600700Y4000500D03*
G01*
X5346700Y4000500D03*
G01*
X5092700Y4000500D03*
G01*
X4838700Y4000500D03*
G01*
X4584700Y4000500D03*
G01*
X4330700Y4000500D03*
G01*
X4076700Y4000500D03*
G01*
X3822700Y4000500D03*
G01*
X3568700Y4000500D03*
G01*
X3314700Y4000500D03*
G01*
X3060700Y4000500D03*
G01*
X5854700Y1968500D03*
G01*
X5600700Y1968500D03*
G01*
X5346700Y1968500D03*
G01*
X5092700Y1968500D03*
G01*
X4838700Y1968500D03*
G01*
X4584700Y1968500D03*
G01*
X4330700Y1968500D03*
G01*
X4076700Y1968500D03*
G01*
X3822700Y1968500D03*
G01*
X3568700Y1968500D03*
G01*
X3314700Y1968500D03*
G01*
X3060700Y1968500D03*
G01*
X6108700Y1968500D03*
G01*
X6362700Y1968500D03*
G01*
X6616700Y1968500D03*
G01*
X6870700Y1968500D03*
D12*
G01*
X5435600Y3365500D03*
D13*
G01*
X5181600Y3365500D03*
G01*
X4927600Y3365500D03*
G01*
X4673600Y3365500D03*
G36*
X5408929Y4591334D02*
G01*
X5538470Y4591334D01*
X5538470Y4461794D01*
X5408929Y4461794D01*
G37*
D15*
G01*
X5219700Y4526559D03*
G01*
X4965700Y4526559D03*
G01*
X4711700Y4526559D03*
M02*
